<?xml version="1.0" encoding="UTF-8" standalone="no"?>
<!-- Created with Inkscape (http://www.inkscape.org/) -->

<svg
   xmlns:dc="http://purl.org/dc/elements/1.1/"
   xmlns:cc="http://creativecommons.org/ns#"
   xmlns:rdf="http://www.w3.org/1999/02/22-rdf-syntax-ns#"
   xmlns:svg="http://www.w3.org/2000/svg"
   xmlns="http://www.w3.org/2000/svg"
   xmlns:sodipodi="http://sodipodi.sourceforge.net/DTD/sodipodi-0.dtd"
   xmlns:inkscape="http://www.inkscape.org/namespaces/inkscape"
   id="svg2"
   version="1.1"
   inkscape:version="0.48.1 r9760"
   width="300"
   height="449"
   sodipodi:docname="splash.png">
  <metadata
     id="metadata8">
    <rdf:RDF>
      <cc:Work
         rdf:about="">
        <dc:format>image/svg+xml</dc:format>
        <dc:type
           rdf:resource="http://purl.org/dc/dcmitype/StillImage" />
        <dc:title></dc:title>
      </cc:Work>
    </rdf:RDF>
  </metadata>
  <defs
     id="defs6" />
  <sodipodi:namedview
     pagecolor="#ffffff"
     bordercolor="#666666"
     borderopacity="1"
     objecttolerance="10"
     gridtolerance="10"
     guidetolerance="10"
     inkscape:pageopacity="0"
     inkscape:pageshadow="2"
     inkscape:window-width="1600"
     inkscape:window-height="876"
     id="namedview4"
     showgrid="false"
     inkscape:zoom="0.75723831"
     inkscape:cx="152.64118"
     inkscape:cy="224.5"
     inkscape:window-x="0"
     inkscape:window-y="24"
     inkscape:window-maximized="1"
     inkscape:current-layer="svg2" />
  <g
     id="g2987"
     transform="translate(-0.002195,0.00325691)">
    <path
       style="fill:#d3b38c"
       d="M 0,224.5 0,0 150,0 300,0 300,224.5 300,449 150,449 0,449 0,224.5 z"
       id="path2995"
       inkscape:connector-curvature="0" />
    <path
       style="fill:#c8a078"
       d="M 0.66666667,448.33333 C 0.3,447.96667 0,346.9402 0,223.83008 L 0,-0.00651381 149.75,0.2467431 299.5,0.5 l 0.25219,224.25 0.2522,224.25 -149.33553,0 C 68.53432,449 1.0333333,448.7 0.66666667,448.33333 z M 264.19699,407.09096 c 0.47527,1.42581 4.80301,0.27176 4.80301,-1.28079 0,-0.66981 -0.53172,-0.61377 -1.4562,0.15348 -0.8009,0.66469 -1.9259,0.91823 -2.5,0.56342 C 263.62553,405.65053 263.71786,403 265.16667,403 c 0.64166,0 0.932,-0.23467 0.64518,-0.52148 -0.28682,-0.28682 -1.59932,-0.0903 -2.91667,0.43661 -1.31735,0.52695 -1.81685,0.98662 -1.11,1.02148 1.02078,0.0504 1.03853,0.5263 0.0863,2.31339 -1.06222,1.9935 -1.02032,2.10274 0.36757,0.95826 1.16461,-0.96035 1.66691,-0.99044 1.95796,-0.1173 z m -3.46462,-7.67383 c 0.16326,-1.34704 0.0443,-1.47108 -0.39995,-0.41713 -0.34777,0.825 -1.12733,1.87176 -1.73236,2.32613 -0.70754,0.53136 -0.56484,0.6802 0.39994,0.41713 0.825,-0.22494 1.60456,-1.2717 1.73237,-2.32613 z M 266,396.75945 c 0,-0.4177 -1.9125,-0.68743 -4.25,-0.59941 -3.7877,0.14263 -3.88932,0.20444 -0.93421,0.56826 2.90082,0.35714 3.15112,0.60752 2,2.00062 -1.18677,1.43625 -1.09517,1.455 0.93421,0.19119 1.2375,-0.77066 2.25,-1.74296 2.25,-2.16066 z m -2.72852,-7.50692 c -0.65269,-1.72405 -0.97003,-1.82339 -2.06091,-0.64518 -1.06059,1.1455 -1.01622,1.39265 0.25,1.39265 0.84669,0 1.53943,0.525 1.53943,1.16667 0,0.64166 0.23467,0.932 0.52148,0.64518 0.28682,-0.28682 0.17432,-1.43851 -0.25,-2.55932 z m -7.85327,-2.85952 C 256.2882,386.05917 257,385.32907 257,384.77057 c 0,-0.57815 -0.65638,-0.47071 -1.52417,0.24949 -1.65856,1.37648 -1.62291,1.3924 -3.40386,-1.52006 -1.02008,-1.66818 -1.1275,-1.69609 -0.64748,-0.16821 0.31653,1.00748 0.57551,2.24498 0.57551,2.75 0,1.06438 1.1764,1.17149 3.41821,0.31122 z M 257,381.44098 c 0,-0.85746 -0.45734,-1.27636 -1.01631,-0.9309 -0.55897,0.34546 -0.75742,1.04702 -0.44098,1.55902 0.85723,1.38704 1.45729,1.12841 1.45729,-0.62812 z m 2.69299,-8.17195 c -0.25354,-0.97297 -0.47766,-0.41903 -0.49804,1.23097 -0.0204,1.65 0.18706,2.44606 0.46099,1.76903 0.27392,-0.67703 0.29059,-2.02703 0.0371,-3 z m -6.44299,2.06869 c -2.45978,-0.99254 -1.23088,-3.21338 2,-3.61432 3.19982,-0.3971 3.1921,-0.4058 -0.5,-0.56336 -3.37601,-0.14408 -3.75,0.0893 -3.75,2.33996 0,1.74436 0.52895,2.47614 1.75,2.42105 1.04544,-0.0472 1.24674,-0.28201 0.5,-0.58333 z m 2.43311,-1.52522 c -0.31922,-0.79773 -0.55618,-0.56078 -0.60416,0.60417 -0.0434,1.05416 0.19292,1.64479 0.52522,1.3125 0.33229,-0.33229 0.36781,-1.1948 0.0789,-1.91667 z m 3.56689,-4.47478 c -0.6875,-0.27741 -1.8125,-0.27741 -2.5,0 -0.6875,0.27741 -0.125,0.50439 1.25,0.50439 1.375,0 1.9375,-0.22698 1.25,-0.50439 z m -1.80935,-2.18499 c 2.99324,-1.45593 3.43743,-1.98554 2.09677,-2.5 -0.93555,-0.359 -2.22669,-0.6211 -2.86921,-0.58244 -0.64251,0.0387 -0.27571,0.41887 0.81512,0.84493 1.6484,0.64383 1.35287,0.89293 -1.75,1.47503 C 253.68,366.77546 252,367.52024 252,368.04531 c 0,1.38004 1.15947,1.18982 5.44065,-0.89258 z m -1.17162,-5.80867 c -0.67703,-0.27392 -2.02703,-0.29059 -3,-0.0371 -0.97297,0.25354 -0.41903,0.47766 1.23097,0.49804 1.65,0.0204 2.44606,-0.18706 1.76903,-0.46099 z m 2.23097,-2.26078 -3,-0.68009 3.817,-1.30126 c 2.09935,-0.71569 3.57628,-1.54198 3.28207,-1.8362 -0.29422,-0.29421 -1.78687,-0.0665 -3.31701,0.50593 -1.53013,0.57248 -3.68206,1.35635 -4.78206,1.74194 -2,0.70107 -2,0.70107 0,1.52345 1.1,0.45231 3.125,0.80077 4.5,0.77435 2.22351,-0.0427 2.16821,-0.12325 -0.5,-0.72812 z m -0.25,-4.74556 c -0.6875,-0.27741 -1.8125,-0.27741 -2.5,0 -0.6875,0.27741 -0.125,0.50439 1.25,0.50439 1.375,0 1.9375,-0.22698 1.25,-0.50439 z m 3.1081,-2.02929 c -1.58549,-0.3103 -2.00432,-0.9453 -1.61228,-2.44443 0.36178,-1.38345 1.11976,-1.87091 2.39189,-1.53824 C 263.16197,348.59361 264,348.40489 264,347.90638 264,347.40787 262.6868,347 261.08179,347 c -1.60502,0 -3.74252,-0.26174 -4.75,-0.58164 -1.74048,-0.55264 -1.74392,-0.50929 -0.069,0.86957 1.66654,1.372 1.63925,1.53732 -0.5,3.02918 -1.24451,0.86789 -1.72681,1.60159 -1.07177,1.63044 0.65504,0.0289 1.4691,-0.39755 1.80902,-0.94755 0.71842,-1.16243 2.55611,-1.35534 2.38158,-0.25 -0.27936,1.76925 0.25035,2.24202 2.36842,2.11382 2.19408,-0.1328 2.19676,-0.1466 0.1081,-0.55539 z m 2.98561,-8.51476 c 0.81251,-3.10708 0.19266,-3.26628 -1.15983,-0.2979 -0.62755,1.37733 -0.75313,2.50423 -0.27907,2.50423 0.47406,0 1.12156,-0.99285 1.4389,-2.20633 z m -7.09371,0.54405 c -2.80369,-1.13131 -1.21283,-3.33902 2.5,-3.46936 l 3.75,-0.13164 -3.5,-0.67489 c -4.38423,-0.84539 -5,-0.53785 -5,2.49719 0,1.68815 0.53972,2.41663 1.75,2.36203 1.04544,-0.0472 1.24674,-0.28201 0.5,-0.58333 z m 8.1375,-8.52522 c 0.76311,-3.81554 0.26874,-4.36409 -4.73593,-5.25499 -2.61759,-0.46596 -3.63817,-0.34484 -3.19099,0.37871 0.3616,0.58508 1.9809,1.06378 3.59844,1.06378 2.61417,0 2.94098,0.34018 2.94098,3.06127 0,3.06077 -7.8e-4,3.06119 -4.75,2.5241 -3.42511,-0.38735 -4.05269,-0.29278 -2.25,0.33904 1.375,0.48193 3.68125,0.92109 5.125,0.97591 2.18184,0.0828 2.73262,-0.43844 3.2625,-3.08782 z m -180.982081,-8.42969 1.713753,-5.43665 4.120412,3.52692 c 4.331344,3.70747 5.283375,4.10781 6.208597,2.61076 0.311419,-0.50388 -1.667009,-2.86972 -4.396507,-5.25742 l -4.962722,-4.34127 2.946377,-8.41839 c 1.620508,-4.63011 2.714779,-8.64999 2.431715,-8.93305 -0.994858,-0.99486 -3.248193,2.41771 -4.863992,7.36629 -2.712292,8.30671 -2.823108,8.35651 -8.154168,3.66392 C 76.847129,309.87376 74.133333,308 73.418227,308 c -2.996805,0 -1.928425,1.84528 3.655314,6.31337 C 80.333093,316.92165 83,319.41435 83,319.8527 c 0,0.43835 -1.089393,3.99994 -2.420873,7.91466 l -2.420872,7.11766 2.266706,-1.03278 c 1.525953,-0.69527 2.826756,-2.80947 3.980458,-6.46943 z M 261.25,334.33772 c -0.6875,-0.27741 -1.8125,-0.27741 -2.5,0 -0.6875,0.27741 -0.125,0.50439 1.25,0.50439 1.375,0 1.9375,-0.22698 1.25,-0.50439 z M 39.349337,332.53203 c 0.727755,-1.8965 -1.189,-3.09237 -2.636469,-1.6449 C 35.895711,331.70429 35.934545,332 36.859017,332 c 0.692459,0 0.980902,0.45 0.640983,1 -0.339919,0.55 -0.189621,1 0.333994,1 0.523616,0 1.20552,-0.66059 1.515343,-1.46797 z M 41.6,330.4 c -0.355892,-0.92744 -0.872077,-1.46126 -1.147077,-1.18626 -0.275,0.275 -0.208815,1.25882 0.147077,2.18626 0.355892,0.92744 0.872077,1.46126 1.147077,1.18626 0.275,-0.275 0.208815,-1.25882 -0.147077,-2.18626 z m 12.973795,-1.5194 C 54.873126,328.39627 56.216476,328 57.559017,328 c 2.632676,0 2.721169,-0.10627 1.890679,-2.2705 -0.837589,-2.18272 -11.365919,0.85962 -10.917992,3.15494 0.173401,0.88856 0.349704,1.66566 0.391785,1.72689 0.319522,0.46492 5.221256,-1.03652 5.650306,-1.73073 z M 75,321.83152 c 0,-2.15851 0.122059,-2.14285 -5.55718,-0.71281 -3.956498,0.99626 -5.446878,2.5439 -3.920086,4.07069 0.287503,0.2875 2.537503,0.0617 5,-0.50181 C 73.823119,323.93235 75,323.18162 75,321.83152 z m 157.51613,-56.86256 c -0.0823,-1.11706 -0.90709,-2.78849 -1.83288,-3.71428 C 229.10558,259.67701 229,259.71909 229,261.92547 c 0,1.78635 1.83794,4.37315 3.58288,5.04273 0.0456,0.0175 0.0156,-0.88217 -0.0667,-1.99924 z m -88.38059,-73.50115 c 1.90686,-0.45377 2.5061,-1.12219 2.16734,-2.41758 -0.4225,-1.61565 -0.87498,-1.67031 -4.63554,-0.55995 -2.29204,0.67676 -4.05484,1.5183 -3.91734,1.8701 0.1375,0.35179 0.25,1.11994 0.25,1.70701 0,0.58706 0.7875,0.83343 1.75,0.54749 0.9625,-0.28595 2.93599,-0.80213 4.38554,-1.14707 z m 15.15772,-5.45438 c -0.40926,-1.56502 -0.9547,-1.67109 -4.13238,-0.80362 -4.4315,1.20975 -4.3477,1.13978 -3.62411,3.02542 0.92045,2.39866 8.40419,0.25499 7.75649,-2.2218 z M 168.58179,186 C 169.3618,186 170,185.04375 170,183.875 c 0,-1.8541 -0.40502,-2.044 -3.17708,-1.48958 -3.89393,0.77878 -4.03126,0.90807 -3.21742,3.02892 0.37149,0.96809 1.27834,1.46048 2.10533,1.14313 C 166.50984,186.25086 167.80177,186 168.58179,186 z M 240.75,165.01365 c 0.6875,-0.008 1.25,-0.92222 1.25,-2.0327 0,-1.69529 -0.44098,-1.91365 -2.75,-1.36174 -3.75124,0.89663 -4.25,1.25531 -4.25,3.05644 0,1.1273 0.6216,1.39103 2.25,0.95464 1.2375,-0.33164 2.8125,-0.60913 3.5,-0.61664 z m 13.125,-3.63865 c 1.71875,-0.34375 3.125,-1.04531 3.125,-1.55902 0,-0.51371 -0.44485,-0.65908 -0.98855,-0.32306 -0.58825,0.36356 -0.72041,-0.0878 -0.32639,-1.11459 0.5174,-1.34833 0.27598,-1.57736 -1.10435,-1.04767 -0.97158,0.37283 -2.84971,0.94973 -4.17361,1.28201 -1.32391,0.33228 -2.4071,1.23036 -2.4071,1.99574 0,1.53901 1.21815,1.69796 5.875,0.76659 z m 14.61197,-4.39609 c -0.26935,-0.43582 0.41089,-0.55687 1.51165,-0.26902 1.55872,0.40761 2.00138,0.0316 2.00138,-1.70025 0,-1.61681 -0.43166,-2.05797 -1.58179,-1.61663 -0.86998,0.33385 -2.24654,0.60699 -3.05901,0.60699 -0.81248,0 -1.23929,0.38499 -0.94848,0.85554 0.29082,0.47055 -0.58263,0.64309 -1.94098,0.38343 -2.57495,-0.49224 -3.22213,0.60864 -1.41825,2.41252 1.18191,1.18191 6.19801,0.56123 5.43548,-0.67258 z M 46.838518,156.25 c -0.08881,-0.4125 0.377908,-2.06078 1.037161,-3.66284 1.281222,-3.11352 0.76193,-4.18709 -2.292813,-4.7401 -1.054423,-0.19088 -2.125303,-0.9722 -2.379732,-1.73626 -0.308346,-0.92597 -0.03437,-1.12453 0.821643,-0.59549 0.823956,0.50924 1.03818,0.39557 0.597706,-0.31713 -0.377593,-0.61096 -1.366549,-0.84989 -2.19768,-0.53095 -1.320283,0.50664 -1.298807,0.81451 0.170038,2.43757 1.387471,1.53314 1.456724,2.12814 0.396397,3.40576 -1.073259,1.2932 -0.902643,1.95484 1.036302,4.01876 2.421166,2.57721 3.082567,2.98207 2.810978,1.72068 z m -1.463765,-2.43539 c 0.282091,-0.92697 0.102593,-1.82697 -0.398884,-2 -0.545532,-0.18824 -0.539693,-0.91378 0.01454,-1.80625 0.609856,-0.98205 1.258639,-1.15287 1.899076,-0.5 0.632044,0.64431 0.447308,1.86729 -0.527429,3.49164 -0.825105,1.375 -1.26939,1.74157 -0.987299,0.81461 z M 285.38844,151.43012 C 285.69027,150.64356 285.50135,150 284.96862,150 c -0.53274,0 -0.97551,0.5625 -0.98393,1.25 -0.0102,0.83333 -0.33844,0.75 -0.98469,-0.25 -0.80672,-1.2483 -0.98519,-1.1644 -1.06363,0.5 -0.0519,1.1 -0.32124,1.4375 -0.59865,0.75 -0.6739,-1.6701 -3.33772,-1.60359 -3.33772,0.0833 0,0.73334 0.26326,1.59659 0.58501,1.91835 0.93399,0.93398 6.20042,-1.25014 6.80343,-2.82156 z m 9.06996,-1.49743 c -0.36322,-0.5877 0.2843,-1.31415 1.44098,-1.61663 1.15534,-0.30213 2.10062,-0.9734 2.10062,-1.49171 0,-0.93116 -1.32988,-0.41733 -3.73899,1.44466 -1.12031,0.86588 -0.87648,2.73099 0.35702,2.73099 0.275,0 0.20317,-0.48029 -0.15963,-1.06731 z M 39.5,147 c -2.749085,-1.18132 -4.327966,-1.18132 -2.5,0 0.825,0.53316 2.175,0.94464 3,0.9144 0.989055,-0.0362 0.81874,-0.34772 -0.5,-0.9144 z m 11.201308,-2.60399 c 1.141273,-2.45903 1.078804,-2.55764 -1.25,-1.97315 C 48.103089,142.76125 47,142.65453 47,142.18572 c 0,-0.46881 -0.675,-0.85239 -1.5,-0.85239 -2.360328,0 -1.752809,1.62005 1,2.66667 2.815859,1.07059 3.45679,2.24501 0.75,1.37428 -1.477138,-0.47517 -1.516118,-0.3947 -0.25,0.51607 2.106168,1.51507 2.350352,1.41648 3.701308,-1.49434 z m -8.635567,-2.43119 C 43.129584,141.39547 44,140.27047 44,139.46482 44,138.65917 44.476558,138 45.059017,138 c 0.582459,0 0.780902,0.45 0.440983,1 -0.339919,0.55 -0.169768,1 0.378112,1 0.577304,0 0.776504,-1.57674 0.473764,-3.75 -0.753873,-5.41178 -1.201483,-6.46098 -2.431945,-5.70051 -0.787929,0.48696 -0.789906,0.98053 -0.0071,1.76338 1.789196,1.78919 1.259862,4.25856 -0.912868,4.25856 -1.1,0 -2,-0.35357 -2,-0.78572 C 41,135.35357 41.675,135 42.5,135 c 2.770941,0 1.533019,-1.51984 -1.333333,-1.63698 -1.794843,-0.0734 -2.833334,0.38869 -2.833334,1.26059 0,0.75702 0.423145,1.37639 0.940322,1.37639 0.517178,0 0.681301,0.675 0.364719,1.5 -0.316583,0.825 -0.04973,1.5 0.593011,1.5 0.874051,0 0.86614,0.30248 -0.03139,1.2 -2.4495,2.4495 -1.352494,3.48716 1.865741,1.76482 z m 0.08369,-11.96363 c 0.574966,-1.64935 1.494816,-2.72106 2.044112,-2.38157 0.559225,0.34562 0.846402,-0.16851 0.652589,-1.16832 -0.402739,-2.07758 -3.073811,-3.3266 -2.795843,-1.30736 0.102672,0.74583 0.126468,2.03106 0.05288,2.85606 -0.116501,1.30611 -0.253205,1.31122 -1.057584,0.0395 -0.670212,-1.05959 -0.898732,-0.57922 -0.832507,1.75 0.113695,3.9988 0.597706,4.05171 1.936352,0.21167 z m -3.752437,-5.16786 C 38.113729,124.375 37.458524,124 36.940983,124 36.423442,124 36,124.375 36,124.83333 c 0,0.45834 0.655205,0.83334 1.456011,0.83334 0.800807,0 1.224249,-0.375 0.940983,-0.83334 z M 38,121 c 0,-0.55 -0.476558,-1 -1.059017,-1 -0.582459,0 -0.780902,0.45 -0.440983,1 0.339919,0.55 0.816476,1 1.059017,1 C 37.801558,122 38,121.55 38,121 z m 3.776546,-1.42925 c -0.110578,-1.33609 -0.647583,-2.34859 -1.193344,-2.25 -0.545761,0.0986 -1.012747,-0.79575 -1.037747,-1.98742 -0.025,-1.19166 -0.382955,-2.50416 -0.795455,-2.91666 -1.349887,-1.34989 -0.787993,-2.30915 1.135604,-1.9387 1.429533,0.2753 1.766201,-0.0935 1.391936,-1.52466 C 40.681356,106.6735 38,104.15723 38,105.87756 c 0,0.61734 0.5625,1.13675 1.25,1.15424 0.838872,0.0213 0.736264,0.43247 -0.311971,1.25 -2.499207,1.94916 -3.163659,4.70495 -1.156644,4.79715 1.03007,0.0473 1.221017,0.27995 0.476605,0.58067 -0.903213,0.36486 -0.961811,1.02528 -0.214817,2.42105 C 38.60813,117.1363 38.75979,118 38.380196,118 c -0.379594,0 0.124318,0.9 1.119804,2 2.312294,2.55506 2.520289,2.51584 2.276546,-0.42925 z m 45.147572,-4.21736 C 87.157383,115.15083 85.381535,105.04127 82.977789,92.887697 79.262479,74.102741 78.312912,70.681381 76.643202,70.063715 74.912632,69.423536 74.876521,69.261361 76.339531,68.699951 77.252789,68.349501 78,67.590073 78,67.012333 c 0,-1.185192 -5.304067,-0.194365 -5.814608,1.086199 -0.173034,0.434012 -1.032867,0.513492 -1.910739,0.176621 -1.281858,-0.491895 -1.468723,-0.136264 -0.949047,1.806177 0.355896,1.330268 0.653229,3.457728 0.660739,4.727687 0.0075,1.269959 0.421689,2.056838 0.920396,1.74862 0.498708,-0.308218 0.707649,0.227724 0.464315,1.190983 -0.243335,0.963259 0.157595,4.67638 0.890956,8.25138 0.995185,4.851343 1.755416,6.502944 2.997292,6.511606 0.915149,0.0064 2.243685,0.659681 2.952302,1.451772 1.08499,1.212801 1.046288,1.259468 -0.245144,0.295596 -3.403917,-2.540542 -3.756762,0.0044 -1.589232,11.462606 l 2.12277,11.22158 4,-0.61074 c 2.2,-0.3359 4.190853,-0.77647 4.424118,-0.97903 z m 11.896135,-2.22114 c 0.854222,-0.54163 1.483077,-3.80134 1.781527,-9.23469 0.73938,-13.460674 -0.0997,-12.298437 9.45649,-13.098777 4.60495,-0.385669 8.40452,-0.610669 8.44351,-0.5 0.039,0.110669 1.72661,2.758573 3.75029,5.88423 l 3.67941,5.683017 3.96169,-1.5562 3.96168,-1.556195 -3.64088,-4.876818 C 128.21149,91.194568 126.21914,89 125.78655,89 c -0.4326,0 -0.796,-0.5625 -0.80756,-1.25 -0.0246,-1.466459 -13.62072,-20.093617 -15.0239,-20.583333 -0.5253,-0.183334 -0.97006,-0.858334 -0.98836,-1.5 -0.0705,-2.473708 -3.66415,-5.558553 -5.81889,-4.995077 -1.16894,0.305685 -1.90479,0.912663 -1.63521,1.348841 0.26957,0.436178 -0.40502,0.558964 -1.4991,0.272857 C 98.8411,61.98669 97.8343,62.33294 97.56157,63.136546 97.307066,63.886446 96.395174,73.95 95.535143,85.5 c -0.860031,11.55 -1.787587,22.6875 -2.061235,24.75 -0.448152,3.37773 -0.27301,3.74848 1.764274,3.73469 1.244,-0.008 2.855932,-0.39202 3.582071,-0.85244 z m 2.910717,-29.053011 c -0.29945,-1.1451 -0.19788,-1.867807 0.2257,-1.606017 0.42359,0.261791 1.01717,-2.248139 1.31908,-5.577622 0.59956,-6.612025 1.38677,-8.250031 2.77377,-5.77159 0.49474,0.884042 2.71099,4.018183 4.925,6.964758 2.21401,2.946574 4.02548,5.707019 4.02548,6.13432 0,0.427302 -1.9125,0.783057 -4.25,0.790567 -2.3375,0.0075 -5.20053,0.268788 -6.36229,0.580618 -1.56817,0.420917 -2.25253,0.03065 -2.65674,-1.515034 z m -3.528304,-8.932823 c -1.058008,-0.671143 -1.050438,-1.027864 0.04104,-1.933707 1.036511,-0.860228 1.371483,-0.671163 1.485185,0.838271 0.167389,2.222144 0.206124,2.194342 -1.526221,1.095436 z M 36,104 c 0,-0.55 -0.198442,-1 -0.440983,-1 -0.242541,0 -0.719098,0.45 -1.059017,1 -0.339919,0.55 -0.141476,1 0.440983,1 C 35.523442,105 36,104.55 36,104 z m 3.5,-2 c 0.339919,-0.55 0.141476,-1 -0.440983,-1 C 38.476558,101 38,101.45 38,102 c 0,0.55 0.198442,1 0.440983,1 0.242541,0 0.719098,-0.45 1.059017,-1 z M 49.781711,97.154866 C 49.993437,96.51969 49.679167,96 49.083333,96 48.4875,96 48,95.067004 48,93.926676 c 0,-1.436316 -0.53767,-1.969779 -1.75,-1.736305 -0.9625,0.18536 -1.80625,0.893356 -1.875,1.573324 -0.26053,2.576751 -0.475996,2.686991 -1.810803,0.926464 -0.812376,-1.071474 -1.626775,-1.397923 -1.996205,-0.800173 -0.848254,1.372505 3.252358,3.45447 4.784933,2.429408 0.673794,-0.450667 -0.142471,0.396734 -1.813923,1.883112 L 40.5,100.90501 44.948378,99.607372 c 2.446608,-0.713702 4.621608,-1.81733 4.833333,-2.452506 z m 107.957039,3.217794 c 1.3196,-0.35369 1.95928,-1.066568 1.55804,-1.73635 -0.39243,-0.65509 -0.009,-0.592389 0.90512,0.148057 1.30259,1.054968 2.31922,0.990923 5.69196,-0.35858 C 168.15224,97.522167 170,96.355144 170,95.832403 c 0,-0.52274 0.40467,-0.70034 0.89926,-0.394665 0.49459,0.305674 2.33338,-1.077612 4.08621,-3.073969 2.72154,-3.099666 3.1263,-4.230972 2.77166,-7.746754 C 176.7999,75.127411 171.8323,70 163.59571,70 c -4.52366,0 -6.26796,1.416346 -2.84571,2.310674 1.64009,0.428601 1.63812,0.464609 -0.0314,0.573325 -0.97977,0.0638 -2.04041,-0.558999 -2.35699,-1.383999 -0.69793,-1.818759 -5.44332,-1.981087 -7.30833,-0.25 -0.95534,0.886731 -1.15069,0.901415 -0.67221,0.05053 0.45082,-0.801713 -0.57827,-1.419255 -3.1033,-1.862241 -6.15117,-1.079147 -8.3712,-2.981526 -8.1043,-6.944681 0.12679,-1.882608 0.43572,-3.217731 0.68651,-2.96694 0.25079,0.250791 1.01428,-0.0074 1.69665,-0.573683 0.68237,-0.566316 4.77378,-1.361994 9.09201,-1.768173 7.49972,-0.705433 8.06373,-0.610515 12.59377,2.11946 3.64169,2.194621 5.4405,2.704645 7.75,2.197394 C 174.03949,60.832416 175.25893,58 172.5,58 c -0.825,0 -1.5,-0.401216 -1.5,-0.891592 0,-0.490376 -1.1434,-1.178568 -2.5409,-1.529317 -1.46476,-0.367631 -2.25887,-1.094051 -1.875,-1.715171 0.36625,-0.592595 0.94715,-0.691902 1.2909,-0.220683 0.34375,0.47122 1.62085,1.412678 2.838,2.09213 1.88299,1.051144 2.12588,1.008348 1.62882,-0.286985 C 171.54638,53.375509 166,50.504345 166,52.165449 c 0,0.669246 -0.60993,0.382686 -1.35539,-0.636799 -1.28754,-1.760809 -4.83148,-1.609592 -4.53546,0.193524 0.30849,1.879083 -0.19,3.277826 -1.16817,3.277826 -0.58246,0 -0.73364,-0.526472 -0.33595,-1.169939 0.49754,-0.80504 0.15994,-0.953848 -1.08243,-0.477108 -1.5966,0.612674 -1.6445,0.494432 -0.41404,-1.022019 0.92197,-1.136267 0.96969,-1.461475 0.14144,-0.963875 -0.71841,0.431609 -1.25,0.248536 -1.25,-0.430487 0,-0.874988 -0.34812,-0.892547 -1.34201,-0.06769 -0.7381,0.612573 -1.59304,0.862734 -1.89986,0.555914 -0.30682,-0.30682 -0.89745,-0.0084 -1.3125,0.663184 -0.45857,0.741971 -0.33827,0.963705 0.3066,0.565152 0.68776,-0.425059 0.84435,0.136451 0.44495,1.595491 -0.50095,1.830018 -0.68438,1.923855 -0.98006,0.50138 -0.33544,-1.613695 -1.46877,-2.203698 -3.54145,-1.843644 -0.45338,0.07876 -0.53932,-0.317952 -0.19098,-0.881579 C 147.83303,51.461149 147.41648,51 146.55902,51 145.70156,51 145,51.476558 145,52.059017 c 0,0.582459 -0.49278,0.754462 -1.09507,0.382228 -0.60228,-0.372234 -2.38406,0.276208 -3.95951,1.440983 -1.57544,1.164775 -3.22016,2.13206 -3.65493,2.149523 -1.19099,0.04784 -6.90629,6.219229 -7.61089,8.218249 -0.33926,0.9625 -0.1544,1.75 0.4108,1.75 0.5652,0 0.78221,0.397108 0.48224,0.882463 -0.82145,1.329132 3.33149,6.12704 6.30868,7.288445 6.59073,2.57105 23.93146,3.017241 22.5058,0.579092 -0.402,-0.6875 0.16938,-0.4625 1.26973,0.5 1.10035,0.9625 2.72004,1.75 3.59931,1.75 2.28586,0 5.74384,4.792504 5.74384,7.960545 0,4.93701 -6.50455,9.042694 -14.3151,9.035717 -4.36909,-0.0039 -10.02208,-2.713432 -12.6849,-6.079981 -1.30242,-1.64663 -2.00333,-1.757228 -5.32131,-0.839658 l -3.82131,1.056764 1.74617,2.683307 c 4.45585,6.847214 15.78394,11.526266 23.1352,9.555966 z M 142.5,56 c -0.33992,-0.55 0.11008,-1 1,-1 0.88992,0 1.33992,0.45 1,1 -0.33992,0.55 -0.78992,1 -1,1 -0.21008,0 -0.66008,-0.45 -1,-1 z m -102,42.015279 c 1.591473,-0.289562 1.526659,-0.517536 -0.508478,-1.788501 -1.602743,-1.000929 -1.821377,-0.946962 -1.331841,0.328749 0.322125,0.839443 0.192975,1.454569 -0.287,1.366946 -2.05072,-0.374375 -3.445635,0.150468 -2.87101,1.080231 0.385008,0.622956 1.25949,0.660303 2.309017,0.09861 C 38.73981,98.604066 39.95,98.115349 40.5,98.015279 z m 16.809017,-1.001624 c 0.994959,-0.0075 1.571077,-0.398649 1.280262,-0.869198 -0.290815,-0.470549 0.621781,-0.635605 2.02799,-0.36679 2.230655,0.426416 2.510735,0.184794 2.195997,-1.894457 C 62.614855,92.572444 61.900701,91.6125 61.226259,91.75 60.551817,91.8875 60.1125,91.464226 60.25,90.80939 60.3875,90.154555 59.6,89.455364 58.5,89.255634 56.816381,88.949933 56.737286,89.071976 58,90.027127 c 1.203006,0.909986 0.976153,1.021036 -1.145742,0.560872 -1.821853,-0.395096 -2.824135,-0.108882 -3.218615,0.919116 -0.31508,0.821087 -1.374497,1.440684 -2.354258,1.376884 C 49.611882,92.775283 49.609911,92.739275 51.25,92.310674 52.2125,92.059147 53,91.478476 53,91.020295 c 0,-0.45818 -0.9,-0.5977 -2,-0.310044 -2.292709,0.599557 -2.548899,2.425758 -0.75,5.346243 0.828075,1.344367 1.92508,1.850706 3.25,1.500086 1.1,-0.291099 2.814058,-0.535415 3.809017,-0.542925 z M 37.216492,85.816492 c -0.654342,-0.654342 -1.251321,-0.569154 -1.758133,0.250884 -0.517917,0.838008 -0.357241,0.988164 0.494266,0.461903 0.937113,-0.579167 1.093188,-0.168762 0.60676,1.595492 -0.579753,2.102734 -0.522794,2.163406 0.49649,0.528854 0.760422,-1.219434 0.81496,-2.18279 0.160617,-2.837133 z m 179.074218,0.716823 c 2.86511,-1.409111 4.45903,-2.358975 3.54205,-2.11081 -0.91698,0.248166 -1.92631,-0.223898 -2.24294,-1.049029 -0.31663,-0.825132 -1.03621,-1.215624 -1.59907,-0.86776 -0.56286,0.347864 -0.76448,1.051386 -0.44804,1.563382 C 215.85914,84.581094 215.64148,85 215.05902,85 214.47656,85 214,84.325 214,83.5 c 0,-0.825 0.47656,-1.5 1.05902,-1.5 0.58246,0 0.78408,-0.444846 0.44806,-0.988546 -0.35034,-0.56686 0.0511,-0.734507 0.94098,-0.393011 1.00582,0.385968 1.55194,0.03004 1.55194,-1.011454 0,-2.001508 2.58771,-2.123779 3.34208,-0.157917 0.39046,1.017517 0.0756,1.264722 -1.05705,0.830062 -1.16106,-0.445539 -1.38373,-0.247847 -0.79457,0.705436 0.54464,0.881236 0.43221,1.085674 -0.33595,0.610922 C 218.51953,81.203052 218,81.407307 218,82.049391 c 0,1.334548 4.86722,0.442288 6.5,-1.191582 0.66682,-0.667269 0.54188,-0.893574 -0.375,-0.679238 -0.75625,0.176786 -1.60242,-0.30458 -1.88038,-1.069702 -0.38492,-1.059573 0.12458,-1.233023 2.13773,-0.727752 l 2.64311,0.663377 -2.10443,-2.420305 c -2.10208,-2.41761 -5.65788,-2.896214 -5.15521,-0.693882 0.14621,0.640549 -0.30379,1.071708 -1,0.958133 C 218.06962,76.774864 215.475,77.643619 213,78.819007 200.02323,84.98173 187,77.812736 187,64.506594 187,59.772592 191.08588,50 193.06515,50 c 0.56731,0 2.87093,-0.888733 5.11916,-1.974961 2.24824,-1.086229 4.4765,-1.734671 4.9517,-1.440983 C 203.6112,46.877744 204,46.341476 204,45.39235 c 0,-0.949126 -0.28417,-1.441516 -0.63148,-1.0942 C 202.37961,45.287054 199,43.095104 199,41.464816 199,39.845565 197.53795,39.694546 194.5,41 c -1.24394,0.53454 -1.45186,0.885999 -0.55,0.929715 1.15479,0.05598 1.19721,0.323071 0.20836,1.311926 -0.98886,0.988854 -1.43364,0.937957 -2.18469,-0.25 C 191.1986,41.765697 191.02517,41.856248 191,43.5 c -0.0253,1.653524 -0.19587,1.740143 -0.98446,0.5 -0.80503,-1.266007 -1.38408,-1.071013 -3.71196,1.25 -1.51697,1.5125 -2.19173,2.75 -1.49947,2.75 0.69226,0 1.50678,-0.646586 1.81003,-1.436858 0.91502,-2.384486 3.43529,-0.620033 2.94853,2.064277 -0.30145,1.662388 -0.0681,2.201519 0.74986,1.732629 0.66275,-0.379911 0.82945,-0.288656 0.37725,0.206516 -0.44562,0.487967 -2.59744,0.949431 -4.78182,1.025475 -4.05009,0.140994 -5.75022,0.899031 -4.59879,2.050462 0.35337,0.353375 1.33867,0.06472 2.18956,-0.641444 1.31736,-1.093316 1.44419,-1.015882 0.85422,0.521544 -0.51394,1.339326 -0.35087,1.594145 0.63162,0.986935 0.84808,-0.52414 1.08463,-0.430527 0.6577,0.260274 -0.36672,0.593354 0.12625,1.321721 1.09549,1.618592 0.96923,0.296871 0.63724,0.388796 -0.73776,0.204278 -1.375,-0.184518 -3.24685,-0.650901 -4.15966,-1.036405 -1.17413,-0.495869 -1.85766,-0.07706 -2.3365,1.431627 -0.98969,3.118231 -0.73683,14.269085 0.39082,17.235038 2.25893,5.941441 10.32907,12.541444 18.10534,14.807099 4.48066,1.305463 12.89527,0.156851 18.29071,-2.496724 z m 4.3123,-10.366648 c -0.28327,-0.458334 0.14017,-0.833334 0.94098,-0.833334 0.8008,0 1.45601,0.375 1.45601,0.833334 C 223,76.625 222.57656,77 222.05902,77 c -0.51754,0 -1.17275,-0.375 -1.45601,-0.833333 z M 193.75,47.859246 c 0.6875,-0.692585 1.25,-1.645804 1.25,-2.118263 0,-0.472459 -0.5625,-0.530107 -1.25,-0.128106 -0.6875,0.402001 -0.3548,-0.358941 0.73934,-1.690983 1.09414,-1.332042 2.13111,-2.633862 2.30438,-2.892934 0.36474,-0.545371 2.1682,2.105976 2.19097,3.22104 0.008,0.4125 -0.46125,0.75 -1.04371,0.75 -0.58246,0 -0.7809,-0.45 -0.44098,-1 0.33992,-0.55 0.14148,-1 -0.44098,-1 C 196.47656,43 196,44.076855 196,45.393011 c 0,1.358588 -0.75647,2.681004 -1.75,3.059246 -1.40315,0.534186 -1.50225,0.41665 -0.5,-0.593011 z M 38.361626,82.5 C 38.678209,81.675 38.501354,81 37.968615,81 37.435877,81 37,81.675 37,82.5 c 0,0.825 0.176855,1.5 0.393011,1.5 0.216156,0 0.652033,-0.675 0.968615,-1.5 z m -3.694959,-1.15079 c 0,-0.984499 -0.336971,-1.037796 -1.333334,-0.210889 C 32.6,81.746934 32,82.339789 32,82.455778 c 0,0.115989 0.6,0.210889 1.333333,0.210889 0.733334,0 1.333334,-0.592856 1.333334,-1.317457 z M 46.75,81.676155 c 0.6875,-0.0052 1.25,-0.436948 1.25,-0.959399 0,-0.522451 1.083917,-0.742706 2.408705,-0.489457 1.884453,0.360236 2.279,0.113548 1.812769,-1.133423 -0.503899,-1.347717 -0.349109,-1.393326 1.002268,-0.295318 0.953825,0.774995 1.836093,0.913643 2.188226,0.34388 0.324513,-0.525073 1.438789,-0.732721 2.476169,-0.46144 1.03738,0.271281 2.16238,0.04628 2.5,-0.5 0.33762,-0.546281 1.583837,-0.739582 2.769371,-0.429558 1.979594,0.517676 2.100405,0.288123 1.480254,-2.81263 -0.941821,-4.709107 -1.828504,-5.267999 -6.26787,-3.950754 C 56.241451,71.619605 52.925,72.380571 51,72.679091 c -3.613052,0.560295 -5.306651,2.01572 -4.279508,3.677672 0.323689,0.52374 0.069,0.631168 -0.565984,0.238729 C 45.519529,76.203052 45,76.411008 45,77.057614 c 0,0.694198 0.842424,0.95535 2.057105,0.637704 1.232353,-0.322268 1.912243,-0.103363 1.695791,0.545995 -0.567476,1.702426 -3.551429,1.726084 -4.201009,0.03331 -0.322516,-0.840464 -0.07353,-2.14608 0.553305,-2.901368 0.873391,-1.052373 0.819007,-1.34996 -0.232747,-1.273572 -3.992671,0.289986 -6.204718,1.607191 -6.555142,3.903384 -0.366827,2.403677 -0.339528,2.414296 1.227922,0.477633 C 40.426925,77.391314 40.856573,77.175 40.5,78 c -0.370422,0.857042 -9.75e-4,0.705435 0.861908,-0.353693 1.413166,-1.734565 1.50387,-1.638166 1.411372,1.5 -0.05437,1.844531 -0.289031,2.788389 -0.521475,2.097462 -0.232444,-0.690926 -0.841531,-0.997332 -1.353527,-0.680901 -1.716589,1.06091 0.24454,2.526702 2.435879,1.820631 C 44.525371,81.999678 46.0625,81.681373 46.75,81.676155 z m 13.595077,-8.219283 c -0.325685,-0.848721 -0.368713,-1.766569 -0.09562,-2.039663 0.273094,-0.273095 0.736558,0.421313 1.029919,1.543128 0.62315,2.382929 -0.06922,2.750891 -0.9343,0.496535 z M 249,79.991679 c 0,-0.320598 1.64882,-0.693947 3.66405,-0.829666 2.01523,-0.135719 4.15273,-0.552174 4.75,-0.925457 0.59727,-0.373283 1.90745,-0.80658 2.91152,-0.962884 C 263.00839,76.856034 266,75.080464 266,73.905799 c 0,-0.563108 0.51953,-0.702747 1.15451,-0.310307 0.72104,0.445627 0.88282,0.273932 0.4309,-0.457295 -0.39798,-0.643952 -1.21898,-0.86466 -1.82445,-0.490464 -0.70405,0.435128 -0.87511,0.09211 -0.47457,-0.951663 0.34444,-0.897611 0.12639,-1.94096 -0.48457,-2.318553 -0.64742,-0.400126 -0.83098,-0.233722 -0.44002,0.398876 0.36895,0.596976 0.21348,1.368062 -0.34549,1.713526 C 263.45734,71.835382 263,71.566476 263,70.89235 c 0,-0.674126 -0.29724,-0.928442 -0.66054,-0.565147 -0.36329,0.363294 0.15645,1.563294 1.15499,2.666666 1.58772,1.754407 1.6141,2.006131 0.21023,2.006131 -0.88292,0 -2.02407,-0.748302 -2.5359,-1.662894 C 260.35446,71.881992 260.14594,71.964821 259.5,74 c -0.64594,2.035179 -0.85446,2.118008 -1.66878,0.662894 -1.19679,-2.138555 -3.43559,-2.136281 -4.25701,0.0043 -0.48762,1.270711 -0.91737,1.389624 -1.80699,0.5 C 251.12525,74.525248 249.34,74 247.8,74 c -1.54,0 -2.8,-0.395406 -2.8,-0.87868 0,-1.950326 -5.8386,-3.373233 -9.13136,-2.225373 -4.1331,1.440806 -4.84926,0.75288 -0.91341,-0.877401 1.66064,-0.687862 2.79828,-1.608353 2.52809,-2.045535 -0.73283,-1.185737 -4.02284,-0.383946 -3.73332,0.909826 C 233.8875,69.497276 233.37748,70 232.61663,70 c -0.76085,0 -1.59351,0.803571 -1.85034,1.785714 -0.56589,2.163977 3.00456,2.525536 5.05514,0.511905 0.72678,-0.71369 2.30178,-1.265991 3.5,-1.227334 2.10509,0.06791 2.11111,0.09927 0.17857,0.929715 -1.39301,0.598598 -1.54476,0.902092 -0.5,1 1.06779,0.100067 0.92373,0.41437 -0.5,1.090811 -1.86426,0.885747 -1.84736,0.921284 0.249,0.523594 1.23696,-0.234654 2.48478,-0.04516 2.77294,0.421091 0.28816,0.466255 2.42611,0.68615 4.75099,0.488654 2.32489,-0.197495 3.46071,-0.142299 2.52406,0.122659 -0.93666,0.264958 -1.9703,1.323894 -2.29699,2.353191 -0.32669,1.029297 -1.36033,2.080999 -2.29699,2.337116 -0.93665,0.256116 -0.24051,0.414322 1.54699,0.351568 1.7875,-0.06275 3.25,-0.376407 3.25,-0.697005 z M 247.5,78 c 0.33992,-0.55 1.37898,-0.993109 2.30902,-0.984687 1.45727,0.0132 1.48367,0.149288 0.19098,0.984687 -1.95837,1.265597 -3.28218,1.265597 -2.5,0 z m 7.10301,-0.833333 c -0.28327,-0.458334 0.12038,-0.833334 0.89699,-0.833334 0.77661,0 1.18026,0.375 0.89699,0.833334 C 256.11373,77.625 255.71008,78 255.5,78 c -0.21008,0 -0.61373,-0.375 -0.89699,-0.833333 z m -13.13405,-3.216886 c -0.91846,-1.486099 -0.188,-2.012205 1.41676,-1.020408 0.85973,0.531342 0.96201,1.0467 0.29014,1.461939 -0.57071,0.352721 -1.33882,0.154032 -1.7069,-0.441531 z m -1.12588,4.598552 c 0.70492,-1.836992 -4.26002,-4.454422 -6.77563,-3.571995 -1.61006,0.564782 -1.5174,0.826436 0.83962,2.370814 1.45718,0.954783 3.08671,1.465709 3.62118,1.135391 0.53446,-0.330317 0.97175,-0.124019 0.97175,0.45844 0,1.510287 0.6903,1.308478 1.34308,-0.39265 z m 4.08666,-0.662023 C 244.12846,77.398839 244.43352,77 245.10765,77 c 0.67413,0 0.99009,-0.235592 0.70214,-0.523539 -0.80874,-0.808745 -3.59588,0.523717 -4.15765,1.987673 -0.34011,0.886301 0.11603,1.147746 1.41143,0.808991 1.05266,-0.275278 1.66744,-0.899345 1.36617,-1.386815 z m 31.55495,-13.195327 c -0.0104,-0.812327 -0.28414,-0.766906 -0.86084,0.142863 -0.68591,1.082046 -0.95583,1.046392 -1.42984,-0.18887 -0.4164,-1.085114 0.19022,-1.640915 2.11083,-1.934014 2.08769,-0.318594 1.84474,-0.445069 -1.07789,-0.56113 L 270.95389,62 l 1.63244,2.491414 c 1.60143,2.444088 3.4286,2.551389 3.39836,0.199569 z M 231.72952,61.70364 c -0.67624,-1.212002 -1.36649,-2.415608 -1.53389,-2.67468 -0.16741,-0.259071 -0.72302,0.190929 -1.23469,1 -0.69417,1.097636 -0.9342,1.136639 -0.94563,0.153652 -0.0103,-0.886594 -0.71027,-1.096815 -2.14054,-0.642866 -1.43014,0.453908 -1.90143,0.312415 -1.44098,-0.432612 C 224.81012,58.49821 226.14148,58 227.39235,58 c 1.25087,0 2.34376,-0.5625 2.42863,-1.25 0.0849,-0.6875 0.27237,-2.375 0.41667,-3.75 0.14429,-1.375 0.71235,-2.87273 1.26235,-3.328289 0.55843,-0.462545 -0.20095,-0.636724 -1.71974,-0.394457 -1.49585,0.238608 -2.4818,0.04884 -2.19098,-0.421711 C 227.88009,48.384994 227.67637,48 227.13657,48 c -1.34074,0 -3.33215,6.32676 -2.59558,8.246227 0.32745,0.853309 0.11468,1.848547 -0.47282,2.211639 C 223.48068,58.820959 223,59.782309 223,60.594201 c 0,1.150891 0.42733,1.247466 1.93931,0.438278 1.31346,-0.702941 2.14256,-0.709031 2.5691,-0.01887 0.34638,0.560458 1.07898,0.741398 1.628,0.402088 0.54901,-0.33931 1.24408,0.323288 1.54459,1.472441 0.30051,1.149153 0.936,1.848567 1.41221,1.554255 0.47621,-0.294312 0.31255,-1.526751 -0.36369,-2.738752 z m -5.85708,-6.395598 C 224.93989,54.158381 224.90064,53.856782 225.75,54.367059 226.45244,54.78907 227,54.628281 227,54 c 0,-0.614919 0.5625,-0.833105 1.25,-0.48486 0.6875,0.348246 0.37649,-0.0752 -0.69113,-0.940983 C 225.91924,51.244498 225.87124,51 227.24985,51 c 2.42747,0 3.29108,2.131292 1.41847,3.500581 -0.90048,0.658445 -1.34423,1.490178 -0.98611,1.848296 0.35812,0.358118 0.40622,0.651123 0.1069,0.651123 -0.29932,0 -1.16182,-0.761381 -1.91667,-1.691958 z m 47.50256,4.894212 c 0.74904,-1.211967 -1.15036,-3.767942 -2.07063,-2.786389 -0.4424,0.47187 -0.19095,1.07581 0.55878,1.342091 1.15087,0.40875 1.15087,0.618639 0,1.347782 -0.90732,0.574842 -0.96489,0.868757 -0.17217,0.878949 0.65504,0.0084 1.41285,-0.343673 1.68402,-0.782433 z M 274.5,56 c -0.33992,-0.55 -1.15398,-0.993109 -1.80902,-0.984687 C 271.97537,55.024514 272.09871,55.41754 273,56 c 1.92112,1.241525 2.2673,1.241525 1.5,0 z M 188,50.218108 c 0,-0.430041 -1.2375,-0.85055 -2.75,-0.934464 -2.37301,-0.131657 -2.47583,-0.03411 -0.75,0.711606 2.60469,1.125461 3.5,1.182468 3.5,0.222858 z M 212.31109,48.75 c -1.3779,-1.844484 -0.93631,-4.299086 0.7063,-3.926021 1.00958,0.229294 0.87631,-0.283952 -0.45599,-1.75613 -1.03536,-1.144061 -2.1347,-1.827884 -2.44298,-1.519607 -0.30827,0.308277 0.10147,0.979145 0.91054,1.490818 0.99621,0.630021 1.06756,0.935257 0.22104,0.945627 -1.5925,0.01951 -1.62593,3.239379 -0.05,4.815313 1.57453,1.574532 2.30028,1.541873 1.11109,-0.05 z m 60.23003,-0.683469 C 272.17858,47.479939 271.44078,47 270.90156,47 c -0.53923,0 -0.40017,0.629613 0.30901,1.399141 1.43566,1.557814 2.35661,1.327595 1.33055,-0.33261 z M 222,48.622445 c 0,-0.207656 -0.6,-0.875511 -1.33333,-1.484124 -1.00925,-0.837602 -1.33334,-0.745832 -1.33334,0.377555 0,0.816268 0.6,1.484124 1.33334,1.484124 C 221.4,49 222,48.8301 222,48.622445 z m 57,-0.409641 c 0,-0.432957 -1.00683,-0.863037 -2.23739,-0.955733 -1.7584,-0.132456 -1.91897,0.03279 -0.75,0.771883 C 277.841,49.184973 279,49.2563 279,48.212804 z M 207.54112,46.066531 C 207.17858,45.479939 206.44078,45 205.90156,45 c -0.53923,0 -0.40017,0.629613 0.30901,1.399141 1.43566,1.557814 2.35661,1.327595 1.33055,-0.33261 z m 22.75655,0.266802 C 229.96624,45.469646 230.56586,45 232,45 c 1.60802,0 2.04785,-0.432933 1.60699,-1.581787 C 233.27314,42.548229 233,41.407397 233,40.883029 233,40.317491 232.18636,40.365077 231,41 c -1.1,0.588702 -2,1.954535 -2,3.035184 C 229,45.115833 228.52344,46 227.94098,46 c -0.58246,0 -0.82725,0.375 -0.54399,0.833333 0.8545,1.382595 3.45133,0.93497 2.90068,-0.5 z M 230,43 c 0,-0.55 0.42344,-1 0.94098,-1 0.51754,0 1.2191,0.45 1.55902,1 0.33992,0.55 -0.0835,1 -0.94098,1 C 230.70156,44 230,43.55 230,43 z m 40.50764,0.146296 c 0.0735,-0.99713 -0.40988,-1.812963 -1.07409,-1.812963 -0.66421,0 -1.06791,0.7125 -0.89712,1.583334 0.1708,0.870833 0.34498,1.995833 0.38706,2.5 0.12874,1.542457 1.4419,-0.339533 1.58415,-2.270371 z M 277,45.622445 c 0,-0.207656 -0.7875,-0.995156 -1.75,-1.75 C 273.66394,42.628574 273.62857,42.663944 274.87244,44.25 276.17881,45.915748 277,46.445479 277,45.622445 z m -69.91996,-3.702485 2.08004,-2.080039 -2.31982,0.330039 c -1.27591,0.181522 -2.46992,1.11754 -2.65337,2.08004 -0.43828,2.299569 0.35391,2.209198 2.89315,-0.33004 z M 202.66667,41.5 c 0,-0.641667 -0.525,-1.166667 -1.16667,-1.166667 -0.64167,0 -1.16667,0.525 -1.16667,1.166667 0,0.641667 0.525,1.166667 1.16667,1.166667 0.64167,0 1.16667,-0.525 1.16667,-1.166667 z m 36.73598,-2.657524 c -0.49923,-0.807763 0.0117,-0.973873 1.69098,-0.549736 2.30028,0.58099 2.32079,0.54385 0.46534,-0.842403 -1.47571,-1.102536 -2.11914,-1.161991 -2.68402,-0.248009 C 238.15731,38.3635 238.59198,40 239.61803,40 c 0.275,0 0.17808,-0.520886 -0.21538,-1.157524 z M 236,38 c 1.08997,-0.70439 1.14217,-0.97356 0.19098,-0.984687 C 235.47102,37.006891 235.16008,36.55 235.5,36 c 1.03666,-1.677352 -0.0842,-1.11691 -2,1 -1.37691,1.52147 -1.47381,1.996336 -0.40499,1.984687 C 233.86776,38.976265 235.175,38.533156 236,38 z m 9.00811,-1.792347 c -2.00418,-1.622889 -2.06193,-1.9181 -0.61078,-3.122444 1.97679,-1.640589 2.05675,-2.751876 0.19801,-2.751876 -0.86399,0 -1.17683,0.609439 -0.81277,1.583334 0.48832,1.306279 0.32605,1.367571 -0.92738,0.350279 -1.21955,-0.98979 -1.89767,-0.929585 -3.43723,0.305166 -1.8393,1.475131 -1.82817,1.494833 0.27135,0.48035 1.45269,-0.701936 2.39782,-0.720498 2.80902,-0.05517 0.34084,0.551487 0.0933,1.002704 -0.5501,1.002704 -1.30317,0 3.05083,3.9141 4.41255,3.966731 0.47344,0.0183 -0.13527,-0.773287 -1.35267,-1.759078 z m 10.18984,-1.558679 c -0.38713,-1.480388 -0.16765,-1.758493 0.89453,-1.133452 0.83452,0.491079 0.69421,0.01283 -0.34466,-1.174779 -0.9637,-1.101675 -1.42742,-2.327812 -1.03048,-2.724747 0.39693,-0.396936 -0.0653,-0.419698 -1.02721,-0.05058 -1.63173,0.626152 -1.63629,0.753473 -0.068,1.90021 0.93079,0.680607 1.25288,1.49361 0.72177,1.821852 -0.52751,0.32602 -1.78371,-0.505291 -2.79156,-1.847357 C 249.50734,28.717018 247,28.199214 247,30.5 c 0,0.825 0.47656,1.5 1.05902,1.5 0.58246,0 0.7809,-0.45 0.44098,-1 -0.33992,-0.55 -0.24972,-1 0.20044,-1 0.45015,0 1.37013,0.88335 2.04438,1.963 1.02745,1.64521 0.98361,1.87002 -0.27079,1.388659 -1.10766,-0.425049 -1.31962,-0.112855 -0.81543,1.201045 0.5227,1.362148 0.35077,1.569178 -0.73866,0.889461 C 247.31001,34.4377 245,33.953618 245,34.620708 c 0,0.955815 4.66088,2.260407 7.60548,2.128791 2.5642,-0.114613 3.01606,-0.480728 2.59247,-2.100525 z"
       id="path2993"
       inkscape:connector-curvature="0" />
    <path
       style="fill:#8d1e18"
       d="M 1.25,447.50417 C 0.25797982,446.37743 0,400.0521 0,223.04221 L 0,0 148.57143,0 C 276,0 297.34615,0.2032967 298.57143,1.4285714 299.80099,2.6581279 300,33.933333 300,225.92857 L 300,449 151.25,448.96196 C 24.051825,448.92944 2.3188922,448.71822 1.25,447.50417 z M 263.97776,406.75 c 0.0254,1.42482 1.89781,1.6154 3.83023,0.38983 1.56798,-0.99443 0.5711,-6.17854 -1.1664,-6.06567 -0.62787,0.0408 -2.94159,0.94677 -5.14159,2.01328 -3.26151,1.5811 -3.4766,1.83689 -1.16501,1.38545 2.77002,-0.54097 2.79866,-0.5018 1.25,1.70923 -2.27318,3.24542 -1.91813,4.80063 0.41501,1.81788 1.07554,-1.375 1.96553,-1.9375 1.97776,-1.25 z M 265,404.96862 c 0,-2.27548 1.52938,-2.63741 2.32987,-0.55138 0.29911,0.77948 -0.10274,1.66536 -0.89301,1.96862 C 265.48758,406.75013 265,406.2692 265,404.96862 z m 1,-8.10151 c 0,-1.20559 -8.74189,-1.09376 -9.49292,0.12144 -0.34118,0.55203 0.0297,0.74271 0.83983,0.43182 1.88464,-0.7232 3.20786,1.42486 1.76596,2.86676 -2.51324,2.51324 -0.85029,2.56748 2.88713,0.0942 2.2,-1.45589 4,-3.03727 4,-3.51419 z m -5,1.10151 C 261,397.43588 261.675,397 262.5,397 c 0.825,0 1.5,0.17686 1.5,0.39301 0,0.21616 -0.675,0.65203 -1.5,0.96862 -0.825,0.31658 -1.5,0.13972 -1.5,-0.39301 z M 262.12212,390 c 0.48284,0 0.87788,0.75 0.87788,1.66667 0,0.91666 0.26782,1.39884 0.59516,1.0715 C 264.44879,391.88454 263.01373,386 261.95193,386 c -0.48904,0 -0.65962,0.59818 -0.37907,1.32928 0.33543,0.87412 -0.87376,1.74391 -3.53138,2.54015 -2.22281,0.66597 -4.04148,1.64883 -4.04148,2.18413 0,0.5353 1.62996,0.29224 3.62212,-0.54014 1.99217,-0.83238 4.01717,-1.51342 4.5,-1.51342 z m -5.28744,-6 c 0.46899,-3.50333 1.84085,-4.59767 2.63337,-2.10066 0.3667,1.15536 1.07675,2.10066 1.5779,2.10066 0.50114,0 0.39859,-1.125 -0.2279,-2.5 -0.6265,-1.375 -1.62935,-2.49311 -2.22857,-2.48469 -2.21875,0.0312 -3.64746,1.67002 -2.97763,3.41556 0.40652,1.05938 0.13005,2.11061 -0.68806,2.61623 -0.9668,0.59752 -1.71844,0.055 -2.5645,-1.85092 -1.2565,-2.83056 -1.91084,-0.79706 -0.73201,2.2749 0.9869,2.57183 4.81078,1.49159 5.2074,-1.47108 z M 260,374.13167 c 0,-2.61639 -0.37163,-2.91818 -4.23086,-3.43581 -2.32697,-0.31211 -4.28867,-0.48386 -4.35932,-0.38167 -0.0707,0.1022 -0.42534,1.42331 -0.7882,2.93581 -0.60897,2.53843 -0.42745,2.75 2.35933,2.75 2.23869,0 2.99864,-0.45233 2.9401,-1.75 -0.0472,-1.04544 -0.28201,-1.24674 -0.58333,-0.5 -0.27741,0.6875 -1.17939,1.25 -2.00439,1.25 -2.94566,0 -0.61602,-2.50619 2.62423,-2.8231 3.0683,-0.30008 3.26851,-0.13987 2.81166,2.25 C 258.49869,375.84211 258.66494,377 259.13867,377 259.6124,377 260,375.70925 260,374.13167 z m -1.5,-5.10797 -3,-0.73967 3.03902,-1.16629 c 2.00931,-0.77112 3.09552,-1.91617 3.20574,-3.37941 0.12055,-1.60039 -0.0697,-1.83063 -0.68711,-0.83162 -0.62267,1.00752 -1.98416,1.20075 -5.02932,0.71381 -2.74957,-0.43967 -3.95948,-0.31814 -3.54291,0.35589 0.34794,0.56298 1.84356,1.05912 3.3236,1.10254 1.57851,0.0463 2.07087,0.31237 1.19098,0.64358 -0.825,0.31055 -2.625,1.01317 -4,1.56138 l -2.5,0.99674 2.5,0.75999 c 1.375,0.418 3.85,0.75161 5.5,0.74137 l 3,-0.0186 -3,-0.73967 z m 1.5,-6.91866 c 0,-0.49224 -1.8,-1.06663 -4,-1.27643 -4.22654,-0.40307 -5.57756,0.72844 -1.75,1.46566 4.0384,0.77783 5.75,0.7215 5.75,-0.18923 z M 262.5,360 c -0.33992,-0.55 -2.05398,-1.03553 -3.80902,-1.07895 -1.75504,-0.0434 -2.51598,-0.33303 -1.69098,-0.64358 0.825,-0.31055 2.57491,-0.96261 3.88869,-1.44903 1.31378,-0.48642 2.17679,-1.09629 1.91781,-1.35527 -0.97512,-0.97513 -9.8065,-2.18554 -9.8065,-1.34406 0,0.47899 1.4625,0.90426 3.25,0.94505 l 3.25,0.0742 -4,1.80124 -4,1.80125 4,0.70648 c 2.2,0.38857 4.45,0.85911 5,1.04565 1.93606,0.65663 2.61166,0.48673 2,-0.50295 z m 1.5,-9.86995 c 0,-2.68145 -0.31197,-2.90536 -4.75,-3.40915 -5.31747,-0.60361 -6.65742,-0.17709 -3.32102,1.05713 1.22065,0.45154 2.18598,1.13621 2.14519,1.52148 C 257.74507,352.4078 258.21329,353 261,353 c 2.63646,0 3,-0.34778 3,-2.86995 z M 260,350 c 0,-1.1 0.64703,-2 1.43785,-2 0.8214,0 1.37326,0.85746 1.2872,2 -0.0829,1.1 -0.7299,2 -1.43785,2 C 260.57924,352 260,351.1 260,350 z m -3.5,1 c 0.33992,-0.55 0.16803,-1 -0.38197,-1 -0.55,0 -1.27811,0.45 -1.61803,1 -0.33992,0.55 -0.16803,1 0.38197,1 0.55,0 1.27811,-0.45 1.61803,-1 z m 8.03195,-7.10066 c 0.8703,-2.74206 -0.13099,-3.53405 -5.28195,-4.17784 -4.12559,-0.51564 -4.25,-0.44819 -4.25,2.30411 0,2.14523 0.54761,2.94076 2.25,3.26866 5.10186,0.98266 6.61961,0.69192 7.28195,-1.39493 z M 258.75,344.28375 C 254.61053,343.65667 255.2173,341 259.5,341 c 2.83333,0 3.5,0.38095 3.5,2 0,1.1 -0.3375,1.93258 -0.75,1.85017 -0.4125,-0.0824 -1.9875,-0.3373 -3.5,-0.56642 z M 14,338.87836 c 0,-2.17724 -0.244901,-2.21576 -5.25,-0.82578 -3.3704187,0.93601 -4.6998762,2.66421 -3.2018782,4.16221 0.301467,0.30147 2.326467,0.0967 4.5000002,-0.45497 C 12.892011,341.03796 14,340.23009 14,338.87836 z m 10.55718,-0.99707 c 4.420573,-1.11312 5.920536,-3.37701 2.984061,-4.50384 C 24.953031,332.38426 19,334.96314 19,337.07755 c 0,2.25823 -0.139196,2.2381 5.55718,0.80374 z m 240.89601,-2.48347 c 0.37168,-1.9812 0.53426,-3.73911 0.36129,-3.90646 -0.17296,-0.16735 -2.51605,-0.63207 -5.20687,-1.03271 -3.54883,-0.5284 -4.69976,-0.41677 -4.19098,0.40645 0.38577,0.6242 2.24985,1.1349 4.14239,1.1349 1.89422,0 3.44098,0.5087 3.44098,1.13167 0,0.74303 -1.37367,0.94742 -4,0.59516 -2.2,-0.29509 -4,-0.18685 -4,0.24052 0,0.42737 1.8,1.06487 4,1.41666 5.80043,0.92753 5.12759,2.87366 -0.75,2.16932 -3.35483,-0.40203 -4.16256,-0.29381 -2.75,0.36844 1.1,0.51571 3.41242,0.96929 5.13871,1.00794 2.83102,0.0634 3.20496,-0.28284 3.81448,-3.53189 z M 40.25,333.43908 c 2.788058,-0.66497 4.066951,-4.44496 1.5,-4.4335 -3.062933,0.0137 -8.75,2.20709 -8.75,3.37476 0,1.86821 1.129196,2.70832 2.927665,2.17815 0.864784,-0.25493 2.809835,-0.75867 4.322335,-1.11941 z m 40.674462,0.60135 c 0.986138,-0.52777 2.368282,-3.01436 3.071432,-5.52576 0.703149,-2.51141 1.705608,-4.83019 2.227686,-5.15285 0.522077,-0.32266 2.394273,0.81393 4.160433,2.52576 3.148808,3.05195 5.975272,3.95814 7.028796,2.2535 0.291964,-0.47241 -1.688431,-2.60991 -4.400877,-4.75 -2.712447,-2.14009 -4.943016,-4.34108 -4.95682,-4.89108 -0.0138,-0.55 1.093086,-4.6 2.459758,-9 2.947206,-9.48853 2.868244,-8.72279 0.858288,-8.32332 -0.992452,0.19724 -2.658895,3.1397 -4.273456,7.5457 l -2.646614,7.22238 -4.476544,-3.92974 C 75.946578,308.4773 71,306.71254 71,308.8125 c 0,0.44688 2.696776,3.03438 5.992835,5.75 3.296059,2.71563 5.996059,5.20455 6,5.53095 0.0072,0.59376 -3.159718,9.85862 -4.497132,13.15655 -0.802178,1.97809 -0.173006,2.18285 2.428759,0.79043 z M 54.596093,329.42904 C 58.724159,328.22898 60,327.40264 60,325.92904 c 0,-2.35203 -0.715804,-2.37872 -7.312103,-0.27262 -6.283309,2.00617 -5.869672,1.70631 -5.104447,3.70045 0.766199,1.99668 0.405327,1.99297 7.012643,0.0722 z M 71.25,324.94742 c 2.697752,-0.7492 3.75,-1.58944 3.75,-2.99442 0,-2.22463 -0.975617,-2.36519 -6.25,-0.90042 -2.697752,0.7492 -3.75,1.58944 -3.75,2.99442 0,2.22463 0.975617,2.36519 6.25,0.90042 z m 161.28356,-59.74186 c -0.0727,-0.98695 -0.8975,-2.88708 -1.83288,-4.22251 L 229,258.55499 l 0,2.86226 c 0,2.19051 1.70354,4.8298 3.58288,5.55095 0.0456,0.0175 0.0234,-0.7757 -0.0493,-1.76264 z M 146.24238,191.3502 c 0.95154,-0.58809 0.94067,-1.51405 -0.0358,-3.05019 -0.57514,-0.90478 -1.80145,-0.93635 -4.98469,-0.12836 -3.95101,1.00287 -5.19983,2.51708 -3.48784,4.22907 0.70055,0.70055 6.91694,-0.067 8.50833,-1.05052 z M 157.75,188.51196 c 2.40497,-0.69128 2.67407,-1.29624 1.44039,-3.23815 -1.01613,-1.59946 -8.19039,0.24573 -8.19039,2.10653 0,1.85804 1.12269,2.70552 2.92767,2.21001 0.86478,-0.23741 2.58483,-0.72269 3.82233,-1.07839 z M 168.58179,186 c 0.83523,0 1.41821,-0.99898 1.41821,-2.43019 0,-2.24814 -0.23492,-2.36282 -3.13581,-1.53086 -3.914,1.12252 -4.264,1.47678 -3.4793,3.52168 0.38223,0.99607 1.25372,1.40829 2.20533,1.04312 C 166.45556,186.27169 167.80177,186 168.58179,186 z M 243,162.87836 c 0,-1.95676 -1.71582,-2.32919 -5.75,-1.24807 -1.49804,0.40146 -2.25,1.36396 -2.25,2.88001 0,2.1591 0.20719,2.22445 4,1.26173 2.88664,-0.73271 4,-1.53813 4,-2.89367 z m 10.13398,-1.03665 c 2.77296,-0.8308 3.86602,-1.71047 3.86602,-3.11129 0,-1.7145 -0.45703,-1.86726 -3.74238,-1.25093 -4.77584,0.89596 -5.25762,1.22397 -5.25762,3.57953 0,2.27696 0.0971,2.29177 5.13398,0.78269 z M 268.25,157.94742 c 2.69775,-0.7492 3.75,-1.58944 3.75,-2.99442 0,-2.29174 0.14465,-2.27002 -5.55718,-0.83429 -4.08769,1.0293 -5.44574,2.54504 -3.77615,4.21462 0.86627,0.86627 1.14341,0.84712 5.58333,-0.38591 z M 49.064794,150.25 c 1.22532,-3.7125 2.406498,-7.23782 2.62484,-7.83405 0.218342,-0.59623 -0.622943,-1.04623 -1.869522,-1 -2.170824,0.0805 -2.417701,-0.76923 -5.847965,-20.12836 l -3.581459,-20.21241 9.554656,-2.114534 C 64.298363,95.784197 63.310971,96.303713 62.656797,92.272517 62.342599,90.33634 61.953784,88.622815 61.792764,88.464685 61.631744,88.306555 56.605389,89.2802 50.623087,90.628342 44.640786,91.976483 39.521124,92.854458 39.246062,92.579396 38.971,92.304334 38.415461,90.27198 38.01153,88.063053 37.156008,83.384562 35.982741,83.998133 51.628818,80.941769 57.749668,79.746098 63.321494,78.41934 64.010652,77.993416 65.552215,77.040678 64.471328,70 62.783501,70 c -1.373292,0 -35.177038,7.068364 -35.54614,7.432698 -0.144452,0.142586 0.434638,3.816059 1.286865,8.163275 0.852227,4.347215 3.562586,19.092057 6.023018,32.766317 2.460433,13.67425 4.696648,25.22332 4.969366,25.66459 0.272718,0.44126 -0.694426,1.19906 -2.149209,1.68399 l -2.64506,0.88168 5.838447,5.20373 c 3.211146,2.86204 5.93693,5.20372 6.057299,5.20372 0.120369,0 1.221387,-3.0375 2.446707,-6.75 z m 234.785986,3.65217 c 2.04381,-0.71247 3.14922,-1.76551 3.14922,-3 0,-2.23136 0.12109,-2.21326 -5.44022,-0.81291 -3.53325,0.88969 -4.2343,1.43936 -3.82619,3 0.57411,2.19537 1.71612,2.34714 6.11719,0.81291 z m 12.56743,-3.50916 C 297.2882,150.05917 298,148.88602 298,147.78602 c 0,-1.41289 -0.46434,-1.82181 -1.58179,-1.39301 -0.86998,0.33385 -2.21998,0.60699 -3,0.60699 -0.78001,0 -1.41821,0.9 -1.41821,2 0,2.02195 1.52569,2.50298 4.41821,1.39301 z M 87.690665,115.64267 c 0.191798,-0.1918 -0.318417,-3.22736 -1.133811,-6.7457 -0.815394,-3.51833 -3.032381,-14.417595 -4.926638,-24.22058 -1.894257,-9.802986 -3.708078,-18.087585 -4.030712,-18.41022 -0.968672,-0.968672 -8.600334,1.718233 -8.589037,3.023972 0.0058,0.665422 2.030757,11.533895 4.5,24.152162 C 75.97971,106.06057 78,116.58424 78,116.82823 c 0,0.48965 9.132753,-0.62765 9.690665,-1.18556 z m 11.642341,-2.65478 C 99.791159,112.57324 100.54131,107.85369 101,102.5 c 0.45869,-5.353693 1.20884,-10.078217 1.66699,-10.49894 0.45816,-0.420724 4.14092,-0.986242 8.18392,-1.256706 l 7.3509,-0.491754 2.6491,4.464244 c 4.79748,8.084706 4.26771,7.750116 8.94415,5.648946 L 133.94761,98.5 120.42322,80 c -7.43841,-10.175 -13.89627,-18.872148 -14.3508,-19.326995 -0.45452,-0.454847 -2.66408,-0.276416 -4.91011,0.396513 -4.818912,1.44378 -4.382001,-0.497012 -6.646579,29.524611 -1.996995,26.474281 -2.095221,24.580561 1.234269,23.795811 1.5125,-0.35648 3.124853,-0.98741 3.583006,-1.40205 z m 3.889424,-35.19623 c 0.4735,-3.964587 0.97738,-7.324802 1.11972,-7.467145 0.14235,-0.142344 2.57113,2.831107 5.3973,6.607668 4.87662,6.516541 5.02693,6.89639 2.94952,7.453491 -1.20393,0.322859 -4.02013,0.593161 -6.25821,0.600671 L 102.36151,85 l 0.86092,-7.20834 z m 57.97835,22.085133 c 6.79362,-1.439957 12.05822,-4.1193 14.70469,-7.483752 4.21541,-5.359014 1.4513,-17.645264 -4.66528,-20.73683 C 169.63157,70.84315 163.75103,70.047387 157,69.729206 c -12.68533,-0.597867 -16.74344,-1.85879 -17.65363,-5.485281 -0.89026,-3.547075 1.38747,-5.1756 9.00406,-6.43771 7.53526,-1.248633 12.71532,-0.256899 16.35125,3.130482 1.91202,1.781321 2.54997,1.860718 6.21985,0.774105 L 175.01084,60.5 173.25542,57 c -2.53589,-5.056128 -7.11923,-6.996565 -16.5304,-6.998446 -12.53204,-0.0025 -23.57492,4.939929 -27.35057,12.241228 -1.50606,2.91241 -1.49994,3.368721 0.0847,6.311158 3.1731,5.892083 8.36367,7.811016 22.75827,8.413646 13.93888,0.583552 15.25069,1.122753 16.37204,6.729519 0.51033,2.551644 0.14683,3.657558 -1.86273,5.66711 -5.85043,5.850434 -17.06654,5.573974 -23.43568,-0.577654 -2.85404,-2.756573 -3.56435,-2.997488 -6.42166,-2.178024 -1.76696,0.506758 -3.38952,1.451987 -3.6057,2.10051 -0.77294,2.318821 6.13471,8.393797 11.74696,10.330931 6.43525,2.221202 9.02676,2.355152 16.19017,0.836815 z m 56.94194,-13.589197 c 2.91098,-1.644595 6.17841,-4.176506 7.26096,-5.626467 l 1.96828,-2.636294 -2.36029,-2.512417 c -2.73268,-2.908802 -4.24483,-3.141334 -6.07641,-0.93441 -0.7203,0.867905 -3.55704,2.716858 -6.30388,4.108785 -8.64189,4.37918 -17.46733,2.437577 -23.06959,-5.07533 -1.56695,-2.101351 -2.05809,-4.247148 -2.04639,-8.940584 0.0257,-10.294882 4.68687,-15.339354 15.86971,-17.174602 3.63341,-0.59629 3.84799,-0.495637 3.31208,1.553658 -0.55028,2.104282 -0.36711,2.165239 4.61489,1.53578 2.85336,-0.360511 6.57421,-0.900562 8.26856,-1.200113 l 3.08063,-0.544638 -6.16556,-5.920482 C 209.9817,36.665414 209,36.08647 209,38.5 c 0,1.183016 -1.42643,1.504641 -6.75,1.521962 -15.22364,0.04953 -23.52286,8.872274 -23.58792,25.075849 -0.0258,6.426741 0.37348,8.287149 2.59048,12.070184 7.08667,12.092477 24.15816,16.312714 36.89016,9.119601 z m 39.00194,-7.271094 c 7.02559,-2.192681 15.12177,-7.804226 18.50676,-12.827211 C 283.23035,54.94292 278.68493,37.25551 266.63309,31.096648 261.02882,28.232692 251.6061,27.732199 244,29.89448 c -9.20396,2.616524 -18.58482,15.403277 -20.61507,28.099762 -1.17618,7.355442 6.36763,18.576847 14.74234,21.929193 3.96184,1.585906 12.30492,1.188027 19.01739,-0.906933 z M 242.5236,70.936884 c -2.18702,-1.090883 -5.46289,-3.424181 -7.2797,-5.185106 -12.8794,-12.483208 4.23496,-33.077369 23.09908,-27.79574 12.96839,3.630924 17.24858,20.633185 7.48839,29.746234 -5.76978,5.38722 -16.11413,6.822791 -23.30777,3.234612 z"
       id="path2991"
       inkscape:connector-curvature="0" />
    <path
       style="fill:#0a0202"
       d="m 2,448 c 0,-0.65741 24.666667,-1 72,-1 l 72,0 -0.007,-4.75 c -0.009,-6.19819 5.04785,-49.5656 5.87227,-50.36508 0.34884,-0.3383 11.88426,-2.06026 25.63426,-3.82659 13.75,-1.76633 32.65,-4.27068 42,-5.56523 9.35,-1.29454 18.47804,-2.49757 20.28453,-2.67341 l 3.28452,-0.31969 9.84152,26 c 5.41284,14.3 11.14574,29.375 12.73978,33.5 l 2.89826,7.5 14.72569,0.27673 14.7257,0.27674 0,-105.52674 C 298,283.48703 297.76228,236 297.47173,236 c -0.29056,0 -7.5158,3.79602 -16.0561,8.4356 -9.54895,5.18754 -15.66776,7.9791 -15.89125,7.25 -0.19988,-0.65208 -1.10385,-8.3856 -2.00883,-17.1856 -0.90497,-8.8 -1.84445,-16.70223 -2.08772,-17.56052 -0.35558,-1.25447 3.13821,-2.54339 17.81492,-6.57221 L 297.5,205.35558 297.75474,103.67779 C 297.92166,37.052594 298.35258,2 299.00474,2 299.66212,2 300,77.875991 300,225.5 l 0,223.5 -149,0 C 52.333333,449 2,448.66219 2,448 z M 0.45714364,406 c 0,-22.825 0.13127247,-32.1625 0.2917166,-20.75 0.16044413,11.4125 0.16044413,30.0875 0,41.5 -0.16044413,11.4125 -0.2917166,2.075 -0.2917166,-20.75 z M 115.89913,426.15123 c -5.4817,-4.15361 -7.09292,-6.1665 -11.23835,-14.04004 -4.1929,-7.96369 -4.66061,-9.41964 -3.50195,-10.90123 4.81214,-6.15329 17.23397,-20.76139 17.86316,-21.0071 0.41848,-0.16343 3.40009,1.89923 6.6258,4.58369 4.98547,4.14895 6.20979,5.85771 8.16476,11.39539 2.23356,6.32684 2.24965,6.61977 0.55843,10.1663 -0.95777,2.00847 -1.99884,3.65176 -2.31347,3.65176 -0.31464,0 -1.82763,-2.07866 -3.3622,-4.61925 -1.53458,-2.54059 -2.95531,-4.45309 -3.1572,-4.25 -0.20188,0.20309 -0.8303,3.71573 -1.39649,7.80587 -0.98777,7.13556 -0.91026,7.71669 1.91447,14.35471 1.61915,3.80495 2.94391,7.09597 2.94391,7.31338 0,0.21741 -1.50789,0.39529 -3.35087,0.39529 -2.46061,0 -5.05098,-1.28822 -9.75,-4.84877 z M 99.279563,388 c 0.32379,-4.125 1.387217,-23.14962 2.363177,-42.27694 1.50149,-29.42701 1.99676,-34.69164 3.21948,-34.22244 0.79477,0.30498 6.47218,3.67376 12.61649,7.48617 l 11.17146,6.93165 -5.57509,24.89927 -5.57508,24.89927 -9.40457,9.89151 -9.404576,9.89151 0.588709,-7.5 z m 53.133177,-16.60524 c 0.38634,-6.54212 1.61425,-24.04476 2.72868,-38.89476 2.19973,-29.3118 2.5538,-52.11136 0.93179,-60 -0.56544,-2.75 -2.9914,-12.30718 -5.39103,-21.23817 l -4.36295,-16.23817 8.59038,-2.57774 c 4.72472,-1.41775 12.82728,-4.12537 18.0057,-6.01692 9.09296,-3.32144 10.25703,-3.48995 34,-4.92173 36.18979,-2.18238 42.3342,-2.68383 44.97338,-3.67034 1.31378,-0.49109 2.55748,-0.72409 2.76379,-0.51778 0.20631,0.20631 1.86355,8.78454 3.68276,19.06274 l 3.30766,18.68765 -4.69087,2.55308 -4.69086,2.55309 -0.66102,10.16215 c -0.36356,5.58918 -1.55946,25.46214 -2.65756,44.16214 -2.0958,35.69047 -4.15175,57.188 -5.58799,58.42956 -0.47003,0.40631 -20.2046,2.64501 -43.8546,4.97489 -23.65,2.32988 -44.07768,4.49465 -45.39485,4.81061 l -2.39485,0.57447 0.70244,-11.89477 z M 232.4309,265.8882 c -0.37792,-0.6115 -0.17466,-1.42853 0.45169,-1.81563 0.76242,-0.47121 0.30899,-1.48342 -1.37189,-3.06252 L 229,258.65137 l 0,3.73333 c 0,2.23425 0.40154,3.48517 1,3.1153 0.55,-0.33992 1,-0.14148 1,0.44098 0,0.58246 0.47656,1.05902 1.05902,1.05902 0.58246,0 0.7498,-0.50031 0.37188,-1.1118 z M 0.19494872,361.5 c 0.0203797,-1.65 0.24449859,-2.20394 0.498042,-1.23097 0.25354341,0.97297 0.23686912,2.32297 -0.037054,3 C 0.38201364,363.94606 0.17456903,363.15 0.19494872,361.5 z m 0.037054,-6.5 c 0,-1.925 0.20579527,-2.7125 0.45732281,-1.75 0.25152755,0.9625 0.25152755,2.5375 0,3.5 C 0.43779797,357.7125 0.2320027,356.925 0.2320027,355 z m -0.15305533,-5.58333 c 0.04798392,-1.16495 0.2849403,-1.4019 0.60416667,-0.60417 0.28887061,0.72187 0.25334429,1.58438 -0.0789474,1.91667 -0.33229167,0.33229 -0.56864035,-0.25834 -0.5252193,-1.3125 z M 0.32007415,339 c 0,-3.575 0.18149463,-5.0375 0.40332141,-3.25 0.22182677,1.7875 0.22182677,4.7125 0,6.5 -0.22182678,1.7875 -0.40332141,0.325 -0.40332141,-3.25 z M 0.2320027,329 c 0,-1.925 0.20579527,-2.7125 0.45732281,-1.75 0.25152755,0.9625 0.25152755,2.5375 0,3.5 C 0.43779797,331.7125 0.2320027,330.925 0.2320027,329 z m -0.074108,-6 c 0,-1.375 0.22697368,-1.9375 0.50438596,-1.25 0.27741228,0.6875 0.27741228,1.8125 0,2.5 C 0.38486838,324.9375 0.1578947,324.375 0.1578947,323 z M 258.13036,322.10173 c -0.99853,-0.63255 -0.32112,-1.23147 2.5,-2.21032 l 3.86964,-1.34267 -4,-0.63247 c -3.9449,-0.62375 -3.92768,-0.63441 1.25,-0.77436 5.97979,-0.16164 6.7483,0.98477 2,2.98346 l -3.25,1.36801 3.5,0.62167 3.5,0.62167 -4,0.11633 c -2.2,0.064 -4.61634,-0.27412 -5.36964,-0.75132 z M 117.25827,313.5805 c -6.18296,-3.97685 -11.46224,-7.45113 -11.73174,-7.72063 -0.45235,-0.45236 3.0947,-7.11578 28.0289,-52.65458 l 8.92196,-16.29472 2.70162,10.76876 c 1.48589,5.92282 3.48242,14.63149 4.43673,19.35261 l 1.73511,8.58384 -10.92543,22.65603 C 134.41644,310.73262 129.275,320.90158 129,320.86948 c -0.275,-0.0321 -5.55878,-3.31213 -11.74173,-7.28898 z M 0.2320027,315 c 0,-1.925 0.20579527,-2.7125 0.45732281,-1.75 0.25152755,0.9625 0.25152755,2.5375 0,3.5 C 0.43779797,317.7125 0.2320027,316.925 0.2320027,315 z M 258.66667,315.33333 C 258.3,314.96667 258,313.61667 258,312.33333 258,310.23916 258.45519,310 262.44098,310 c 4.83673,0 6.02863,0.94503 5.05618,4.00895 -0.48361,1.52373 -1.51584,1.99105 -4.39788,1.99105 -2.07127,0 -4.06595,-0.3 -4.43261,-0.66667 z M 266,313 c 0,-1.61905 -0.66667,-2 -3.5,-2 -3.49331,0 -4.99629,2.22957 -2.25,3.33772 3.10778,1.25402 5.75,0.63931 5.75,-1.33772 z M 0.42924455,277.5 c -0.0389155,-17.6 0.10201868,-30.2912 0.31318707,-28.20267 0.30416388,3.0083 0.73444218,3.69136 2.07075548,3.28733 C 3.7409342,252.30415 8.1,250.95048 12.5,249.5765 c 19.583407,-6.11529 50.933896,-15.47594 51.140322,-15.26951 0.12477,0.12477 1.783922,4.52832 3.687003,9.78566 l 3.460148,9.55882 L 35.932636,274.569 1.0777988,295.48654 0.78889941,302.49327 C 0.63000473,306.34697 0.46816005,295.1 0.42924455,277.5 z M 258,306.05902 c 0,-1.61754 0.45,-3.2191 1,-3.55902 0.58563,-0.36194 1,0.68406 1,2.52432 0,3.588 2.29562,3.70797 2.81955,0.14735 0.22742,-1.54556 1.02027,-2.17167 2.75,-2.17167 2.10611,0 2.41046,0.4337 2.28062,3.25 -0.13946,3.02493 -0.17868,3.05956 -0.56642,0.5 -0.51925,-3.42765 -2.03183,-3.54281 -3.28375,-0.25 -0.66746,1.75555 -1.70231,2.5 -3.47525,2.5 C 258.3974,309 258,308.53709 258,306.05902 z m 2.25,-6.08815 C 262.3914,298.66125 262.55895,296 260.5,296 c -0.825,0 -1.5,-0.42269 -1.5,-0.9393 0,-0.51662 2.025,-0.24932 4.5,0.594 6.41293,2.1851 6.11952,3.57422 -1,4.73452 -3.06734,0.4999 -3.59196,0.40235 -2.25,-0.41835 z M 265.5,298 c -0.33992,-0.55 -1.04148,-1 -1.55902,-1 -0.51754,0 -0.94098,0.45 -0.94098,1 0,0.55 0.70156,1 1.55902,1 0.85746,0 1.2809,-0.45 0.94098,-1 z m -6.36382,-7.75 c 0.11248,-2.27139 0.21032,-2.36827 0.56213,-0.55666 0.32795,1.68876 1.27433,2.28272 4.11382,2.5819 l 3.68787,0.38855 -4.25,0.16811 c -4.04028,0.1598 -4.24328,0.0324 -4.11382,-2.5819 z M 76.470201,251.29303 c -2.856644,-0.36479 -3.224321,-0.947 -6.433499,-10.18735 l -3.403701,-9.80046 3.542271,-7.45901 3.542271,-7.45902 5.479831,-1.31459 c 5.335532,-1.27998 5.58909,-1.24229 9.628965,1.43117 3.493664,2.312 4.071138,3.1605 3.655415,5.371 -0.484704,2.5773 -0.473444,2.57386 0.616722,-0.18815 0.926815,-2.34814 0.823298,-3.02334 -0.625994,-4.08308 -1.539984,-1.12607 -1.229025,-1.41178 2.748568,-2.52544 2.466751,-0.69065 5.56364,-1.10326 6.88198,-0.91691 2.03654,0.28786 2.44296,0.9729 2.70285,4.55573 0.34092,4.69989 0.95238,4.32195 -10.072162,6.22554 -3.741959,0.64612 -6.661076,0.65546 -8.3151,0.0266 -3.560725,-1.35379 -4.115071,-1.23783 -4.695635,0.98225 -0.305487,1.16819 0.801549,4.07786 2.758389,7.25 2.041994,3.31019 3.460653,7.11268 3.780241,10.13236 0.484072,4.57381 0.342957,4.93648 -2.62502,6.74626 -1.725126,1.05193 -3.811593,1.84226 -4.636593,1.75629 -0.825,-0.086 -2.863409,-0.3304 -4.529799,-0.54319 z M 0.27236411,241 c 0,-2.475 0.195016,-3.4875 0.4333689,-2.25 0.23835289,1.2375 0.23835289,3.2625 0,4.5 -0.2383529,1.2375 -0.4333689,0.225 -0.4333689,-2.25 z m 90.01077989,-1.42616 -0.216855,-5.40924 4.216855,-0.65535 c 2.319271,-0.36044 5.004356,-0.8778 5.966856,-1.14969 1.39119,-0.39298 1.75,0.12872 1.75,2.54446 0,2.56923 -0.50221,3.1838 -3.25,3.9772 -1.7875,0.51612 -2.4625,0.97899 -1.5,1.02859 1.854718,0.0956 2.12926,0.93828 1.143011,3.5084 -0.400749,1.04434 -1.844792,1.57892 -4.25,1.57333 L 90.5,244.98308 90.283144,239.57384 z M 0.36049648,227 c 0,-5.225 0.16854433,-7.3625 0.37454295,-4.75 0.20599862,2.6125 0.20599862,6.8875 0,9.5 -0.20599862,2.6125 -0.37454295,0.475 -0.37454295,-4.75 z M 87.246532,231.84653 C 86.56094,231.16094 86,229.84242 86,228.9165 c 0,-1.34481 1.358016,-1.81984 6.75,-2.36116 3.7125,-0.37271 7.5375,-0.90546 8.5,-1.18389 1.38449,-0.40049 1.75,0.10752 1.75,2.43233 0,2.79131 -0.26307,2.97287 -5.25,3.6233 -2.8875,0.37661 -6.15156,0.90552 -7.253468,1.17536 -1.101907,0.26985 -2.564407,-0.0703 -3.25,-0.75591 z M 104,227.45034 c 0,-0.30231 0.67062,-1.84649 1.49026,-3.4315 1.01566,-1.96407 1.29557,-4.30222 0.87894,-7.34189 -0.58135,-4.24143 -0.79655,-4.48967 -4.39035,-5.06434 -2.647912,-0.42342 -5.078369,-0.0226 -8.120125,1.33928 -4.262895,1.90855 -4.377472,1.9094 -6.35989,0.047 -1.664242,-1.56348 -2.692248,-1.74467 -5.853487,-1.03169 -3.620761,0.81661 -3.802284,0.74402 -3.253679,-1.30118 0.319562,-1.19132 0.587166,-3.58041 0.594676,-5.30909 0.0117,-2.69245 0.551258,-3.359 3.763655,-4.64941 2.0625,-0.82851 4.2,-1.14088 4.75,-0.69417 1.412073,1.14688 32.5,-7.03386 32.5,-8.55233 0,-2.1815 2.676,-3.66593 4.67164,-2.59145 1.0056,0.54143 2.51749,1.19039 3.35977,1.44215 1.79309,0.53594 4.61794,10.45119 3.33295,11.69868 -0.4754,0.46152 -5.13936,2.69925 -10.36436,4.97273 -5.225,2.27347 -10.0625,4.86833 -10.75,5.76635 -0.6875,0.89802 -1.25,3.55058 -1.25,5.89458 C 109,223.58059 107.2709,228 105.33948,228 104.60277,228 104,227.75265 104,227.45034 z M 0.36523058,207.5 c 0.002604,-5.5 0.170532,-7.62242 0.37317389,-4.71648 0.20264189,2.90594 0.20051154,7.40594 -0.004734,10 C 0.52842473,215.37758 0.36262682,213 0.36523058,207.5 z M 181.98098,208.77123 C 178.8916,198.68303 177.403,186.13774 178.03307,175.5 c 0.5099,-8.60898 0.72713,-9.29118 5,-15.70204 3.92421,-5.88776 5.26635,-7.07235 11.04669,-9.75 8.89048,-4.11837 12.23821,-3.90949 25.51005,1.59169 l 6.08981,2.52422 2.22181,11.96586 c 2.02617,10.91218 2.1232,12.96706 1.10195,23.33597 -0.78305,7.95038 -1.96663,13.57537 -3.93523,18.70221 l -2.81537,7.33209 -19.02254,0.27123 -19.02254,0.27123 -2.22672,-7.27123 z M 0.35495546,188.5 c -0.003048,-4.95 0.1660513,-7.10108 0.37577525,-4.78017 0.20972395,2.3209 0.21221741,6.3709 0.005541,9 C 0.52959534,195.34892 0.35800302,193.45 0.35495546,188.5 z M 0.39172076,166 c 0,-7.425 0.15742329,-10.4625 0.34982953,-6.75 0.19240624,3.7125 0.19240624,9.7875 0,13.5 -0.19240624,3.7125 -0.34982953,0.675 -0.34982953,-6.75 z M 0.07894737,146.41667 c 0.04798392,-1.16495 0.2849403,-1.4019 0.60416667,-0.60417 0.28887061,0.72187 0.25334429,1.58437 -0.0789474,1.91667 -0.33229167,0.33229 -0.56864035,-0.25834 -0.5252193,-1.3125 z M 0.34941444,136 c 0,-4.675 0.17225578,-6.5875 0.38279061,-4.25 0.21053484,2.3375 0.21053484,6.1625 0,8.5 -0.21053483,2.3375 -0.38279061,0.425 -0.38279061,-4.25 z m -0.0293403,-15 c 0,-3.575 0.18149463,-5.0375 0.40332141,-3.25 0.22182677,1.7875 0.22182677,4.7125 0,6.5 -0.22182678,1.7875 -0.40332141,0.325 -0.40332141,-3.25 z m -0.24112678,-8.58333 c 0.04798392,-1.16495 0.2849403,-1.4019 0.60416667,-0.60417 0.28887061,0.72187 0.25334429,1.58437 -0.0789474,1.91667 -0.33229167,0.33229 -0.56864035,-0.25834 -0.5252193,-1.3125 z M 0.29966418,101 c 0,-3.025 0.18746562,-4.2625 0.41659026,-2.75 0.22912464,1.5125 0.22912464,3.9875 0,5.5 -0.22912464,1.5125 -0.41659026,0.275 -0.41659026,-2.75 z m 0.010205,-11.5 c 0.005613,-3.3 0.19230069,-4.529441 0.41486211,-2.732091 0.22256142,1.79735 0.21796917,4.49735 -0.010205,6 C 0.48635213,94.270559 0.30425642,92.8 0.30986916,89.5 z m 0,-12 c 0.005613,-3.3 0.19230069,-4.529441 0.41486211,-2.732091 0.22256142,1.79735 0.21796917,4.49735 -0.010205,6 C 0.48635213,82.270559 0.30425642,80.8 0.30986916,77.5 z M 0.15789474,64 c 0,-1.375 0.22697368,-1.9375 0.50438596,-1.25 0.27741228,0.6875 0.27741228,1.8125 0,2.5 C 0.38486842,65.9375 0.15789474,65.375 0.15789474,64 z M 0.07894737,50.416667 c 0.04798392,-1.164943 0.2849403,-1.4019 0.60416667,-0.604167 0.28887061,0.721875 0.25334429,1.584375 -0.0789474,1.916667 -0.33229167,0.332291 -0.56864035,-0.258334 -0.5252193,-1.3125 z M 0.23064898,23.75 0,0 2.75,0.13618205 C 5.080332,0.25158184 5.1594227,0.33813376 3.2682654,0.70333944 1.045933,1.1324991 1.0353191,1.2319829 0.74891439,24.317157 L 0.46129797,47.5 0.23064898,23.75 z M 9.75,0.3377193 c 0.6875,-0.27741228 1.8125,-0.27741228 2.5,0 0.6875,0.27741228 0.125,0.50438596 -1.25,0.50438596 -1.375,0 -1.9375,-0.22697368 -1.25,-0.50438596 z M 37.8125,0.316886 c 0.721875,-0.28887061 1.584375,-0.25334429 1.916667,0.0789474 0.332291,0.33229167 -0.258334,0.56864035 -1.3125,0.5252193 C 37.251724,0.8730688 37.014767,0.6361124 37.8125,0.31688603 z M 51.25,0.31067449 c 0.9625,-0.25152755 2.5375,-0.25152755 3.5,0 0.9625,0.25152754 0.175,0.45732281 -1.75,0.45732281 -1.925,0 -2.7125,-0.20579527 -1.75,-0.45732281 z m 11.5625,0.006211 c 0.721875,-0.28887061 1.584375,-0.25334429 1.916667,0.0789474 0.332291,0.33229167 -0.258334,0.56864035 -1.3125,0.5252193 -1.164943,-0.0479839 -1.4019,-0.2849403 -0.604167,-0.60416667 z m 85.45653,-0.009877 c 0.97297,-0.25354341 2.32297,-0.23686912 3,0.037054 0.67703,0.2739231 -0.11903,0.48136771 -1.76903,0.46098802 -1.65,-0.0203797 -2.20394,-0.24449859 -1.23097,-0.498042 z m 18.54347,0.009877 c 0.72187,-0.28887061 1.58437,-0.25334429 1.91667,0.0789474 0.33229,0.33229167 -0.25834,0.56864035 -1.3125,0.5252193 -1.16495,-0.0479839 -1.4019,-0.2849403 -0.60417,-0.60416667 z m 6.4375,-0.006211 c 0.9625,-0.25152755 2.5375,-0.25152755 3.5,0 0.9625,0.25152754 0.175,0.45732281 -1.75,0.45732281 -1.925,0 -2.7125,-0.20579527 -1.75,-0.45732281 z m 12.5625,0.006211 c 0.72187,-0.28887061 1.58437,-0.25334429 1.91667,0.0789474 0.33229,0.33229167 -0.25834,0.56864035 -1.3125,0.5252193 -1.16495,-0.0479839 -1.4019,-0.2849403 -0.60417,-0.60416667 z m 5.45653,-0.009877 c 0.97297,-0.25354341 2.32297,-0.23686912 3,0.037054 0.67703,0.2739231 -0.11903,0.48136771 -1.76903,0.46098802 -1.65,-0.0203797 -2.20394,-0.24449859 -1.23097,-0.498042 z m 9.48097,0.03071 c 0.6875,-0.27741228 1.8125,-0.27741228 2.5,0 0.6875,0.27741228 0.125,0.50438596 -1.25,0.50438596 -1.375,0 -1.9375,-0.22697368 -1.25,-0.50438596 z"
       id="path2989"
       inkscape:connector-curvature="0" />
  </g>
</svg>
